<svg xmlns="http://www.w3.org/2000/svg" width="100%" height="100%" viewBox="0 0 100 100">
    <g id="패스_1" data-name="패스 1" fill="none">
        <path
            d="M50,100C23.115,80.033,9.015,61.869,3.233,46.666-12.258,5.926,31.989-13.557,50,10.493c18.011-24.05,62.258-4.567,46.767,36.174C90.985,61.869,76.885,80.033,50,100Z"
            stroke="none" />
        <path
            d="M 50 93.73853302001953 C 61.12224960327148 85.22576141357422 70.35970306396484 76.68073272705078 77.48966217041016 68.30548858642578 C 84.32337951660156 60.27824783325195 89.2369384765625 52.39974975585938 92.09368133544922 44.88940811157227 C 94.41095733642578 38.79516983032227 95.35015869140625 33.01454925537109 94.88520050048828 27.70808792114258 C 94.48072052001953 23.09184837341309 93.03031921386719 18.94538879394531 90.57425689697266 15.38388824462891 C 88.35675811767578 12.168288230896 85.33154296875 9.50972843170166 81.82568359375 7.695648670196533 C 78.41761779785156 5.932148456573486 74.64073944091797 5.000008583068848 70.90335845947266 5.000008583068848 C 64.10436248779297 5.000008583068848 58.10205841064453 8.015048980712891 54.00214004516602 13.4897289276123 L 50 18.83380889892578 L 45.99785995483398 13.4897289276123 C 41.89794158935547 8.015048980712891 35.8956413269043 5.000008583068848 29.09663963317871 5.000008583068848 C 25.35984039306641 5.000008583068848 21.58336067199707 5.93220853805542 18.17546081542969 7.695808410644531 C 14.66971969604492 9.510048866271973 11.64449977874756 12.16876888275146 9.4268798828125 15.38452816009521 C 6.970660209655762 18.9462890625 5.520060062408447 23.09286880493164 5.115419864654541 27.70912933349609 C 4.650279998779297 33.01548767089844 5.589260101318359 38.79576873779297 7.906119823455811 44.88887023925781 C 10.76305961608887 52.39974975585938 15.67661952972412 60.27824783325195 22.51033973693848 68.30548858642578 C 29.64029884338379 76.68073272705078 38.87775039672852 85.22576141357422 50 93.73853302001953 M 50 99.99999237060547 C 23.11532020568848 80.03327178955078 9.015379905700684 61.86892700195312 3.232779979705811 46.66648864746094 C -12.25845813751221 5.925891399383545 31.98919296264648 -13.55749702453613 50 10.49256896972656 C 55.38653182983398 3.299862623214722 63.12323760986328 -8.264159987447783e-07 70.90336608886719 -8.264159987447783e-07 C 89.13744354248047 -8.264159987447783e-07 107.6254730224609 18.11027145385742 96.76721954345703 46.66648864746094 C 90.984619140625 61.86892700195312 76.88468170166016 80.03327178955078 50 99.99999237060547 Z"
            stroke="none" fill="#121212" />
    </g>
</svg>